<svg width="96" height="96" xmlns="http://www.w3.org/2000/svg">
    <path d="M74.37 45.989c-2.52.531-3.294-1.652-5.389-3.035-2.101-1.383-4.028-1.913-5.974-3.845-.781-.78-.98-2.11-1.758-2.925-1.035-1.1-1.666-1.401-3.071-1.95-2.467-.957-4.584-1.667-6.634-3.353-.346-.281-1.16-.656-1.921-.797-.326-.07-.47-.018-.58.106-.306.392-.585.867-.857 1.313-.075.123-.328.48-.533.673-.395.356-.89.815-1.27 1.026-2.062 1.26-4.78 2.326-5.952 4.435-.218.388-2.467 1.436-2.986 1.842-.818.673-1.62 1.33-2.46 1.95-.786.586-1.874 1.49-2.693 2.093-.434-.159-.877-.3-1.286-.37-.966-.198-1.778-.942-2.608-1.437-1.065-.674-.985-.744-1.321-.941-.294-.159-.439-.265-.552-.317-.793-.464-.84 0-1.964.69-.936.568-2.016 1.525-2.822 2.287-.642.603-1.295 1.242-1.966 1.898.962-14.504 13.23-25.955 28.23-25.955 14.849 0 27.02 11.24 28.192 25.528-.457.603-1.106.925-1.826 1.084zM47.982 16C31.424 16 18 29.374 18 45.87c0 6.875 2.333 13.182 6.247 18.23l.82-.673a27.44 27.44 0 0 1-4.662-9.973c.253.053.558.14 1.063.3 1.666.532 4.808 1.557 7.071.532 1.438-.674 3.942-1.224 4.904-1.594.91-.374 2.83.458.563-1.03h-.012a.618.618 0 0 0-.116-.053 1.045 1.045 0 0 0-.233-.07c-.222-.053-2.04.3-2.443.247a1.483 1.483 0 0 1-.367-.14c-.986-.533 3.224-3.808 3.362-4.627-1.208.128-2.205.889-3.286 1.365-1.27.55-2.665.568-4.026.585-1.557 0-2.768 1.206-4.137 1.756-.716.3-1.89.567-2.683 1.079-.057-.335-.11-.673-.153-1.008.025-.586.088-1.295.233-2.109.312-1.773 1.034-3.155 2.641-5.28 0 0 1.567-1.876 2.479-2.48.356-.249.74-.584 1.117-.355.4.25-.11 1.79.959 2.055.645.141.076 1.206.298 1.826.236.656-2.659 3.188-1.895 3.49.425.177 2.344-.796 3.362-1.117.898-.282 1.854-.3 2.837-1.223 1.013-.939 2.018-1.47 2.018-1.47.823-.692 1.623-1.4 2.437-2.091.793-.692 1.55-1.4 2.32-2.108.48-.459 2.655-1.664 2.848-2.073 1.012-2.179 3.653-3.455 5.617-4.837.361-.247.752-.78.974-1.079.223-.303.458-.76.587-.906.25-.282.312-.494.591-.634.112-.057.556-.057.747.159.64.673 1.512 1.258 1.543 1.966.054 1.097 3.138 2.055 3.841 2.906.29.352.46.69.58 1.025a7.082 7.082 0 0 1-1.54-.814c-.31-.23-1.036-.176-1.408-.23-1.066-.197-.819.3-.23.903.604.638 1.305 1.17 1.856 1.862.637.779.578 1.417.749 2.355.189.994.785 1.861 1.274 2.746.498.884.463 1.826.738 2.782.298.954 1.114 1.755 1.791 2.463.577.6 1.89 2.074 2.608 1.753.763-.317 1.71.603 1.995.338.288-.25-.763-1.473-.36-1.844.404-.374 2.156.212 2.517 1.33.408 1.311.366 1.417.3 2.354-.043.62-.287 1.118-.706 1.559-.52.514-1.725 1.382-1.487 2.252 1.105-.585 2.307-.637 3.541-.602 1.196.035 2.078-.462 2.879-1.311.354-.374 1.372-1.56 1.95-.956.352.352-.676 1.805.452 1.505.75-.197 1.42-.779 2.1-1.153a5.78 5.78 0 0 0 .494-.317 27.517 27.517 0 0 1-4.765 10.132l.82.673c3.97-5.066 6.355-11.443 6.355-18.37C77.969 29.374 64.539 16 47.983 16zM37.284 63.513c-.046.314-.487 3.033-.968 6.035-.883-.196-1.762-.528-2.747-1.072-.98-.544-1.725-1.103-2.35-1.752 2.3-2 4.376-3.808 4.633-4.018.62-.526.923-.649 1.212-.491.283.156.343.491.22 1.298zm1.634-4.372s-.073-.053-.157-.092c-.08-.035-.14-.07-.147-.088.004.018.007.018.007.018-1.406-.777-2.797-.741-4.396.426-2.208 1.59-12.84 10.55-12.84 10.55l3.069 2.599s1.704-1.484 3.793-3.288c1.026.9 2.177 1.716 3.474 2.44 1.286.707 2.6 1.253 3.903 1.625l-.803 4.966 3.829 1.22s2.03-13.733 2.222-16.437c.147-1.962-.559-3.163-1.954-3.94zM45.888 80h4.03V60.382h-4.03V80zm16.177-11.507c-.99.545-1.87.859-2.746 1.055-.476-3.002-.902-5.721-.96-6.035-.118-.807-.06-1.124.229-1.298.28-.158.59-.035 1.203.491.264.228 2.344 2.035 4.636 4.035-.628.632-1.373 1.208-2.362 1.752zm-5.182-9.529c-.006.018-.07.053-.155.088-.081.04-.14.075-.14.075-1.4.776-2.118 1.976-1.977 3.938.198 2.721 2.202 16.453 2.202 16.453l3.835-1.22-.791-4.948a20.404 20.404 0 0 0 3.915-1.643 19.139 19.139 0 0 0 3.46-2.44c2.089 1.822 3.8 3.324 3.8 3.324l3.068-2.599S63.48 60.997 61.277 59.408c-1.592-1.167-2.99-1.203-4.394-.444zm.836-5.68c-.693-1.345-3.13-.3-4.367-1.432-.34-.3-1.064-.954-1.433-2.07-.35-1.059-.883-1.907-1.776-2.596-1.588-1.24-5.347-3.114-5.088-5.645.117-1.13 1.486-1.362 2.045-2.192.34-.475.388-1.13.789-1.574.45-.513-.182-.513-.625-.548-.945-.035-1.65.992-2.437 1.415-1.287.672-2.445 1.629-3.895 1.945-.426.088-2.594.76-1.18 1.116.968.246 2.052.176 2.854.866 1.03.883 1.87 2.016 2.904 2.9.524.443 1.035.865 1.462 1.414.492.637.429 1.362.793 2.016.352.637 1.045.07 1.478.425 1.415 1.165-.553 1.732-1.061 2.28-.664.726-.793 1.187-2.01 1.68-.537.215-4.025.637-4.45.957-.43.317-.204.422-.094.546.114.126.711.32.978.337 1.465.14 5.973.989 6.897-.158.631-.795 1.568-.887 2.607-.602.73.194 2.179.053 3.436-.46.726-.3 2.738-.318 2.173-.62z" fill="#FFF" fill-rule="evenodd"/>
</svg>
